<svg width="48" height="48" viewBox="0 0 48 48" fill="none" xmlns="http://www.w3.org/2000/svg">
<rect width="48" height="48" rx="24" fill="#EEF2FF"/>
<path d="M30.5334 32.4V17.4667C30.5334 16.4357 29.6977 15.6 28.6668 15.6H19.3334C18.3025 15.6 17.4668 16.4357 17.4668 17.4667V32.4M30.5334 32.4L32.4001 32.4M30.5334 32.4H25.8668M17.4668 32.4L15.6001 32.4M17.4668 32.4H22.1334M21.2001 19.3333H22.1334M21.2001 23.0667H22.1334M25.8668 19.3333H26.8001M25.8668 23.0667H26.8001M22.1334 32.4V27.7333C22.1334 27.2179 22.5513 26.8 23.0668 26.8H24.9334C25.4489 26.8 25.8668 27.2179 25.8668 27.7333V32.4M22.1334 32.4H25.8668" stroke="#6366F1" stroke-width="1.67" stroke-linecap="round" stroke-linejoin="round"/>
</svg>
