<svg width="17" height="14" viewBox="0 0 17 14" fill="none" xmlns="http://www.w3.org/2000/svg">
<path fill-rule="evenodd" clip-rule="evenodd" d="M0.100098 2.80001C0.100098 1.64021 1.0403 0.700012 2.2001 0.700012H6.4001L8.5001 2.80001H12.7001C13.8599 2.80001 14.8001 3.74021 14.8001 4.90001V5.95001H6.4001C4.6604 5.95001 3.2501 7.36032 3.2501 9.10001V10.675C3.2501 11.5449 2.54495 12.25 1.6751 12.25C0.805249 12.25 0.100098 11.5448 0.100098 10.675V2.80001Z" fill="#6366F1"/>
<path d="M4.3001 9.10001C4.3001 7.94022 5.2403 7.00001 6.4001 7.00001H14.8001C15.9599 7.00001 16.9001 7.94022 16.9001 9.10001V11.2C16.9001 12.3598 15.9599 13.3 14.8001 13.3H0.100098H2.2001C3.3599 13.3 4.3001 12.3598 4.3001 11.2V9.10001Z" fill="#6366F1"/>
</svg>
