<svg width="48" height="48" viewBox="0 0 48 48" fill="none" xmlns="http://www.w3.org/2000/svg">
<rect width="48" height="48" rx="6" fill="#EEF2FF"/>
<path d="M28.635 20.85L32.0926 17.3924C32.5026 16.9824 32.5026 16.3176 32.0926 15.9075C31.6825 15.4975 31.0177 15.4975 30.6076 15.9075L27.1501 19.3651V17.7C27.1501 17.1201 26.68 16.65 26.1001 16.65C25.5202 16.65 25.0501 17.1201 25.0501 17.7V21.8992C25.0501 21.9003 25.0501 21.9021 25.0501 21.9031C25.0505 22.0443 25.0788 22.179 25.1298 22.3019C25.1798 22.4229 25.2535 22.5365 25.3508 22.6356C25.3553 22.6402 25.3599 22.6447 25.3645 22.6493C25.4636 22.7465 25.5771 22.8202 25.6982 22.8703C25.822 22.9216 25.9577 22.95 26.1001 22.95H30.3001C30.88 22.95 31.3501 22.4799 31.3501 21.9C31.3501 21.3201 30.88 20.85 30.3001 20.85H28.635Z" fill="#6366F1"/>
<path d="M15.6001 16.65C15.6001 16.0701 16.0702 15.6 16.6501 15.6H18.9106C19.4239 15.6 19.8619 15.9711 19.9463 16.4774L20.7226 21.135C20.7984 21.5897 20.5688 22.0406 20.1565 22.2468L18.5309 23.0596C19.703 25.9722 22.0279 28.297 24.9405 29.4692L25.7533 27.8436C25.9594 27.4313 26.4104 27.2017 26.865 27.2775L31.5227 28.0537C32.029 28.1381 32.4001 28.5762 32.4001 29.0895V31.35C32.4001 31.9299 31.93 32.4 31.3501 32.4H29.2501C21.7114 32.4 15.6001 26.2887 15.6001 18.75V16.65Z" fill="#6366F1"/>
</svg>
