<svg width="48" height="48" viewBox="0 0 48 48" fill="none" xmlns="http://www.w3.org/2000/svg">
<rect width="48" height="48" rx="6" fill="#EEF2FF"/>
<path fill-rule="evenodd" clip-rule="evenodd" d="M21.9001 17.7C19.5805 17.7 17.7001 19.5804 17.7001 21.9C17.7001 24.2196 19.5805 26.1 21.9001 26.1C24.2197 26.1 26.1001 24.2196 26.1001 21.9C26.1001 19.5804 24.2197 17.7 21.9001 17.7ZM15.6001 21.9C15.6001 18.4206 18.4207 15.6 21.9001 15.6C25.3795 15.6 28.2001 18.4206 28.2001 21.9C28.2001 23.2606 27.7688 24.5205 27.0354 25.5503L32.0926 30.6075C32.5026 31.0176 32.5026 31.6824 32.0926 32.0924C31.6825 32.5025 31.0177 32.5025 30.6076 32.0924L25.5505 27.0353C24.5206 27.7686 23.2607 28.2 21.9001 28.2C18.4207 28.2 15.6001 25.3794 15.6001 21.9Z" fill="#6366F1"/>
</svg>
