<svg width="14" height="15" viewBox="0 0 14 15" fill="none" xmlns="http://www.w3.org/2000/svg">
<path d="M11.1007 10.8995C10.5075 11.4927 9.34867 12.6515 8.41384 13.5863C7.63279 14.3674 6.36738 14.3672 5.58633 13.5862C4.66878 12.6686 3.53036 11.5302 2.89966 10.8995C0.63501 8.63485 0.63501 4.96313 2.89966 2.69848C5.1643 0.433838 8.83602 0.433838 11.1007 2.69848C13.3653 4.96313 13.3653 8.63485 11.1007 10.8995Z" stroke="#737373" stroke-width="1.67" stroke-linecap="round" stroke-linejoin="round"/>
<path d="M9.17478 6.79899C9.17478 8 8.20117 8.97361 7.00016 8.97361C5.79915 8.97361 4.82554 8 4.82554 6.79899C4.82554 5.59798 5.79915 4.62437 7.00016 4.62437C8.20117 4.62437 9.17478 5.59798 9.17478 6.79899Z" stroke="#737373" stroke-width="1.67" stroke-linecap="round" stroke-linejoin="round"/>
</svg>
