<svg width="48" height="48" viewBox="0 0 48 48" fill="none" xmlns="http://www.w3.org/2000/svg">
<rect width="48" height="48" rx="24" fill="#EEF2FF"/>
<path d="M21.177 24L23.0591 25.8821L26.8232 22.1179M20.0805 17.1277C20.7557 17.0738 21.3967 16.8083 21.9123 16.369C23.1153 15.3437 24.8848 15.3437 26.0879 16.369C26.6035 16.8083 27.2445 17.0738 27.9197 17.1277C29.4954 17.2535 30.7467 18.5047 30.8724 20.0804C30.9263 20.7556 31.1918 21.3966 31.6311 21.9122C32.6564 23.1153 32.6564 24.8848 31.6311 26.0879C31.1918 26.6034 30.9263 27.2444 30.8724 27.9196C30.7467 29.4953 29.4954 30.7466 27.9197 30.8723C27.2445 30.9262 26.6035 31.1917 26.0879 31.6311C24.8848 32.6563 23.1153 32.6563 21.9123 31.6311C21.3967 31.1917 20.7557 30.9262 20.0805 30.8723C18.5048 30.7466 17.2535 29.4953 17.1278 27.9196C17.0739 27.2444 16.8084 26.6034 16.369 26.0879C15.3438 24.8848 15.3438 23.1153 16.369 21.9122C16.8084 21.3966 17.0739 20.7556 17.1278 20.0804C17.2535 18.5047 18.5048 17.2535 20.0805 17.1277Z" stroke="#6366F1" stroke-width="1.67" stroke-linecap="round" stroke-linejoin="round"/>
</svg>
