<svg width="48" height="48" viewBox="0 0 48 48" fill="none" xmlns="http://www.w3.org/2000/svg">
<rect width="48" height="48" rx="24" fill="#EEF2FF"/>
<path d="M28.2001 30.72H32.4001V29.04C32.4001 27.6482 31.2719 26.52 29.8801 26.52C29.0774 26.52 28.3623 26.8953 27.9009 27.48M28.2001 30.72H19.8001M28.2001 30.72V29.04C28.2001 28.4888 28.0939 27.9623 27.9009 27.48M19.8001 30.72H15.6001V29.04C15.6001 27.6482 16.7283 26.52 18.1201 26.52C18.9228 26.52 19.6379 26.8953 20.0993 27.48M19.8001 30.72V29.04C19.8001 28.4888 19.9063 27.9623 20.0993 27.48M20.0993 27.48C20.7186 25.9329 22.2317 24.84 24.0001 24.84C25.7685 24.84 27.2816 25.9329 27.9009 27.48M26.5201 19.8C26.5201 21.1918 25.3919 22.32 24.0001 22.32C22.6083 22.32 21.4801 21.1918 21.4801 19.8C21.4801 18.4082 22.6083 17.28 24.0001 17.28C25.3919 17.28 26.5201 18.4082 26.5201 19.8ZM31.5601 22.32C31.5601 23.2478 30.8079 24 29.8801 24C28.9523 24 28.2001 23.2478 28.2001 22.32C28.2001 21.3922 28.9523 20.64 29.8801 20.64C30.8079 20.64 31.5601 21.3922 31.5601 22.32ZM19.8001 22.32C19.8001 23.2478 19.0479 24 18.1201 24C17.1923 24 16.4401 23.2478 16.4401 22.32C16.4401 21.3922 17.1923 20.64 18.1201 20.64C19.0479 20.64 19.8001 21.3922 19.8001 22.32Z" stroke="#6366F1" stroke-width="1.67" stroke-linecap="round" stroke-linejoin="round"/>
</svg>
