<svg width="48" height="48" viewBox="0 0 48 48" fill="none" xmlns="http://www.w3.org/2000/svg">
<rect width="48" height="48" rx="24" fill="#EEF2FF"/>
<path d="M22.1335 32.4H28.6668C29.6977 32.4 30.5335 31.5643 30.5335 30.5333V21.5866C30.5335 21.3391 30.4351 21.1017 30.2601 20.9266L25.2068 15.8734C25.0318 15.6983 24.7944 15.6 24.5469 15.6H19.3335C18.3025 15.6 17.4668 16.4357 17.4668 17.4667V27.7333M17.4668 32.4L22.0202 27.8466M22.0202 27.8466C22.5269 28.3533 23.2269 28.6667 24.0001 28.6667C25.5465 28.6667 26.8001 27.4131 26.8001 25.8667C26.8001 24.3203 25.5465 23.0667 24.0001 23.0667C22.4537 23.0667 21.2001 24.3203 21.2001 25.8667C21.2001 26.6399 21.5135 27.3399 22.0202 27.8466Z" stroke="#6366F1" stroke-width="1.67" stroke-linecap="round"/>
</svg>
