<svg width="48" height="48" viewBox="0 0 48 48" fill="none" xmlns="http://www.w3.org/2000/svg">
<rect width="48" height="48" rx="24" fill="#EEF2FF"/>
<path d="M25.9757 22.1333H30.422C31.8096 22.1333 32.7122 23.5937 32.0916 24.8348L28.8249 31.3681C28.5087 32.0005 27.8624 32.4 27.1553 32.4H23.4054C23.2528 32.4 23.1008 32.3813 22.9527 32.3443L19.4423 31.4667M25.9757 22.1333V17.4667C25.9757 16.4357 25.1399 15.6 24.109 15.6H24.0199C23.5536 15.6 23.1757 15.978 23.1757 16.4442C23.1757 17.1109 22.9783 17.7627 22.6085 18.3174L19.4423 23.0667V31.4667M25.9757 22.1333H24.109M19.4423 31.4667H17.5757C16.5447 31.4667 15.709 30.6309 15.709 29.6V24C15.709 22.9691 16.5447 22.1333 17.5757 22.1333H19.909" stroke="#6366F1" stroke-width="1.67" stroke-linecap="round" stroke-linejoin="round"/>
</svg>
