<svg width="48" height="48" viewBox="0 0 48 48" fill="none" xmlns="http://www.w3.org/2000/svg">
<rect width="48" height="48" rx="6" fill="#EEF2FF"/>
<path d="M26.8001 19.8C26.8001 21.3464 25.5465 22.6 24.0001 22.6C22.4537 22.6 21.2001 21.3464 21.2001 19.8C21.2001 18.2536 22.4537 17 24.0001 17C25.5465 17 26.8001 18.2536 26.8001 19.8Z" fill="#6366F1"/>
<path d="M31.4668 21.6667C31.4668 22.6976 30.631 23.5333 29.6001 23.5333C28.5692 23.5333 27.7334 22.6976 27.7334 21.6667C27.7334 20.6357 28.5692 19.8 29.6001 19.8C30.631 19.8 31.4668 20.6357 31.4668 21.6667Z" fill="#6366F1"/>
<path d="M27.7334 28.2C27.7334 26.1381 26.062 24.4667 24.0001 24.4667C21.9382 24.4667 20.2668 26.1381 20.2668 28.2V31H27.7334V28.2Z" fill="#6366F1"/>
<path d="M20.2668 21.6667C20.2668 22.6976 19.431 23.5333 18.4001 23.5333C17.3692 23.5333 16.5334 22.6976 16.5334 21.6667C16.5334 20.6357 17.3692 19.8 18.4001 19.8C19.431 19.8 20.2668 20.6357 20.2668 21.6667Z" fill="#6366F1"/>
<path d="M29.6001 31V28.2C29.6001 27.2161 29.3464 26.2915 28.9008 25.488C29.1243 25.4306 29.3586 25.4 29.6001 25.4C31.1465 25.4 32.4001 26.6536 32.4001 28.2V31H29.6001Z" fill="#6366F1"/>
<path d="M19.0994 25.488C18.6538 26.2915 18.4001 27.2161 18.4001 28.2V31H15.6001V28.2C15.6001 26.6536 16.8537 25.4 18.4001 25.4C18.6416 25.4 18.8759 25.4306 19.0994 25.488Z" fill="#6366F1"/>
</svg>
