<svg width="48" height="48" viewBox="0 0 48 48" fill="none" xmlns="http://www.w3.org/2000/svg">
<rect width="48" height="48" rx="6" fill="#EEF2FF"/>
<path fill-rule="evenodd" clip-rule="evenodd" d="M15.6001 19.8C15.6001 18.6402 16.5403 17.7 17.7001 17.7H21.9001L24.0001 19.8H28.2001C29.3599 19.8 30.3001 20.7402 30.3001 21.9V22.95H21.9001C20.1604 22.95 18.7501 24.3603 18.7501 26.1V27.675C18.7501 28.5449 18.0449 29.25 17.1751 29.25C16.3052 29.25 15.6001 28.5448 15.6001 27.675V19.8Z" fill="#6366F1"/>
<path d="M19.8001 26.1C19.8001 24.9402 20.7403 24 21.9001 24H30.3001C31.4599 24 32.4001 24.9402 32.4001 26.1V28.2C32.4001 29.3598 31.4599 30.3 30.3001 30.3H15.6001H17.7001C18.8599 30.3 19.8001 29.3598 19.8001 28.2V26.1Z" fill="#6366F1"/>
</svg>
